# xmcd CD database file
#
# Track frame offsets:
#	150
#	17416
#	46311
#	93001
#	114563
#	143642
#	162976
#
# Disc length: 2569 seconds
#
# Revision: 0
# Processed by: cddbd v1.5.2PL0 Copyright (c) Steve Scherf et al.
# Submitted via: CDex 1.70beta2
#
DISCID=4a0a0707
DTITLE=Bobby Hutcherson - The View from the Inside
DYEAR=1976
DGENRE=Jazz
TTITLE0=Later, Even
TTITLE1=Houston St., Thursday Afternoon
TTITLE2=Same Shame
TTITLE3=Love Can Be Many Things
TTITLE4=Song For Annie
TTITLE5=Laugh, Laugh Again
TTITLE6=For Heaven's Sake
EXTD=YEAR: 1976
EXTT0=
EXTT1=
EXTT2=
EXTT3=
EXTT4=
EXTT5=
EXTT6=
PLAYORDER=
